# xmcd
#
# Track frame offsets:
#	150
#	14228
#	27016
#	38830
#	50454
#	63360
#	73445
#	85885
#	98426
#	112573
#	125925
#	137795
#	150732
#	164110
#	176754
#	188891
#	201283
#	214194
#
# Disc length: 3023 seconds
#
# Revision: 0
# Processed by: cddbd v1.5.1PL2 Copyright (c) Steve Scherf et al.
# Submitted via: SynApp - FreeCDDB Version: 2.0
#
DISCID=0a0bcd12
DTITLE=Diverse - Best of Country
DYEAR=2001
DGENRE=Country
TTITLE0=Ernie "Tennessee" Ford - Mule Train
TTITLE1=Tex Ritter and His Texans - I'm Wastin' My Tears on You
TTITLE2=Ernest Tubb - Walking the Floor Over You
TTITLE3=Eddy Arnold - Bouquet of Roses
TTITLE4=The Sons of the Pioneers - Have I Told You Lately That I Love You
TTITLE5=Jimmy Wakely -  Margaret Whiting - Slipping Around
TTITLE6=Hank Snow - I'll Tell the World That I Love You
TTITLE7=Hank Williams - Rootie Tootie
TTITLE8=The Carter Family - Can the Circle Be Unbroken (Bye and Bye)
TTITLE9=Jimmie Rodgers - Daddy and Home
TTITLE10=Gene Autry - Back in the Saddle Again
TTITLE11=Wilf Carter - My Queen of the Prairies
TTITLE12=Merle Travis - So Round, So Firm, So Fully Packed
TTITLE13=Jack Guthrie - Oklahoma Hills
TTITLE14=Bob Wills and His Texas Playboys - Time Changes Everything
TTITLE15=Leon Payne - I Love You Because
TTITLE16=Roy Acuff and His Smokey Mountain Boys - Wabash Cannonball
TTITLE17=Roy Rogers - Headin' for Texas and Home
EXTD=
EXTT0=
EXTT1=
EXTT2=
EXTT3=
EXTT4=
EXTT5=
EXTT6=
EXTT7=
EXTT8=
EXTT9=
EXTT10=
EXTT11=
EXTT12=
EXTT13=
EXTT14=
EXTT15=
EXTT16=
EXTT17=
PLAYORDER=
